<svg xmlns="http://www.w3.org/2000/svg" width="24" height="24" viewBox="0 0 24 24" fill="none" stroke="#4b5563" stroke-width="1.5" stroke-linecap="round" stroke-linejoin="round" class="lucide lucide-building-2"><path d="M6 22V4a2 2 0 0 1 2-2h8a2 2 0 0 1 2 2v18"/><path d="M6 18H4a2 2 0 0 0-2 2v2h20v-2a2 2 0 0 0-2-2h-2"/><path d="M12 6h.01"/><path d="M12 10h.01"/><path d="M12 14h.01"/><path d="M12 18h.01"/><path d="M8 6h.01"/><path d="M8 10h.01"/><path d="M8 14h.01"/><path d="M16 6h.01"/><path d="M16 10h.01"/><path d="M16 14h.01"/></svg>
